<svg width="66" height="66" viewBox="0 0 66 66" fill="none" xmlns="http://www.w3.org/2000/svg">
<rect x="0.756196" y="0.756196" width="64.4876" height="64.4876" rx="32.2438" stroke="#E90973" stroke-width="1.51239"/>
<path d="M32.998 60.5C48.1859 60.5 60.498 48.1878 60.498 33C60.498 17.8122 48.1859 5.5 32.998 5.5C17.8102 5.5 5.49805 17.8122 5.49805 33C5.49805 48.1878 17.8102 60.5 32.998 60.5Z" fill="white"/>
<path d="M46.008 24.2858L44.6427 23.3649V18.4717C44.6427 18.1012 44.342 17.8004 43.9715 17.8004C43.6009 17.8004 43.3002 18.1012 43.3002 18.4717V22.4588L35.9396 17.4917C33.887 16.1063 31.2329 16.1076 29.183 17.4917L19.1133 24.2858C17.4459 25.4095 16.4512 27.2822 16.4512 29.2932V42.6358C16.4512 45.9665 19.1616 48.6769 22.4922 48.6769H26.5196C26.8901 48.6769 27.1908 48.3762 27.1908 48.0056V35.9236C27.1908 34.8134 28.0943 33.9099 29.2045 33.9099H35.9167C37.027 33.9099 37.9304 34.8134 37.9304 35.9236V48.0056C37.9304 48.3762 38.2311 48.6769 38.6016 48.6769H42.629C45.9596 48.6769 48.67 45.9665 48.67 42.6358V29.2932C48.67 27.2809 47.6753 25.4095 46.008 24.2858ZM47.3276 42.6358C47.3276 45.2268 45.2199 47.3344 42.629 47.3344H39.2729V35.9236C39.2729 34.0737 37.768 32.5674 35.9167 32.5674H29.2045C27.3532 32.5674 25.8483 34.0737 25.8483 35.9236V47.3344H22.4922C19.9013 47.3344 17.7936 45.2268 17.7936 42.6358V29.2932C17.7936 27.7279 18.5669 26.2727 19.8637 25.3987L29.9321 18.6046C31.5283 17.5266 33.593 17.5266 35.1891 18.6046L45.2575 25.3987C46.5543 26.2727 47.3276 27.7292 47.3276 29.2932V42.6358Z" fill="#E90973"/>
</svg>
