<svg width="66" height="66" viewBox="0 0 66 66" fill="none" xmlns="http://www.w3.org/2000/svg">
<rect x="0.756196" y="0.756196" width="64.4876" height="64.4876" rx="32.2438" stroke="#E90973" stroke-width="1.51239"/>
<path d="M32.998 60.5C48.1859 60.5 60.498 48.1878 60.498 33C60.498 17.8122 48.1859 5.5 32.998 5.5C17.8102 5.5 5.49805 17.8122 5.49805 33C5.49805 48.1878 17.8102 60.5 32.998 60.5Z" fill="white"/>
<g clip-path="url(#clip0_72_4744)">
<path d="M45.0404 26.7174C40.7464 26.7174 37.5207 30.0919 36.3944 31.4533C35.6068 31.1615 34.7072 30.9674 33.707 30.9674C31.0876 30.9674 28.6042 32.3557 26.8844 33.6208C27.5587 30.9745 27.4709 28.1893 27.3958 25.8334C27.3519 24.4904 27.3136 23.2962 27.4439 22.5H31.31L32.7267 19.6667H34.4012L34.4295 18.25C34.4295 16.1902 32.6913 14 29.4712 14C27.1054 14 25.2354 15.6249 25.1929 15.6646C15.857 22.8457 15.9619 34.1521 16.0072 38.9801L16.0129 40.0936C16.2324 40.4095 21.3749 47.8187 32.3045 48C42.785 48.1742 49.7225 43.4355 49.9987 43.2499V27.8819C49.9987 27.8819 48.2916 26.716 45.0404 26.716V26.7174ZM48.582 42.4778C47.1682 43.3179 41.0907 46.5833 32.3045 46.5833C23.2889 46.5833 18.271 40.7084 17.4281 39.6318L17.4239 38.9673C17.3771 33.9594 17.2794 23.5384 26.0924 16.7582C26.108 16.7441 27.6508 15.4167 29.4712 15.4167C32.0509 15.4167 33.0129 17.1549 33.0129 18.2358L31.854 18.25H30.1668V16.8333H28.7501V19.6667H31.1457L30.4374 21.0833H26.3914L26.2242 21.5551C25.8743 22.5453 25.921 24.0158 25.9805 25.8787C26.0754 28.8368 26.0414 32.6575 24.5469 35.6424L25.5796 36.6143C25.6193 36.5718 29.6086 32.3855 33.7084 32.3855C37.0036 32.3855 39.0578 35.0446 39.079 35.0715L40.2124 34.2201C40.1529 34.1407 39.2646 33.0046 37.7176 32.0965C38.8793 30.7762 41.629 28.1369 45.0418 28.1369C47.1965 28.1369 48.1995 28.7107 48.5835 28.8608V42.4807L48.582 42.4778Z" fill="#E90973"/>
</g>
<defs>
<clipPath id="clip0_72_4744">
<rect width="34" height="34" fill="white" transform="translate(16 14)"/>
</clipPath>
</defs>
</svg>
