<svg width="66" height="66" viewBox="0 0 66 66" fill="none" xmlns="http://www.w3.org/2000/svg">
<rect x="0.756196" y="0.756196" width="64.4876" height="64.4876" rx="32.2438" stroke="#E90973" stroke-width="1.51239"/>
<path d="M32.998 60.5C48.1859 60.5 60.498 48.1878 60.498 33C60.498 17.8122 48.1859 5.5 32.998 5.5C17.8102 5.5 5.49805 17.8122 5.49805 33C5.49805 48.1878 17.8102 60.5 32.998 60.5Z" fill="white"/>
<path d="M27.3405 28.1667C29.2941 28.1667 30.8822 26.5786 30.8822 24.625C30.8822 22.6714 29.2941 21.0833 27.3405 21.0833C25.3869 21.0833 23.7988 22.6714 23.7988 24.625C23.7988 26.5786 25.3883 28.1667 27.3405 28.1667ZM27.3405 22.5C28.5121 22.5 29.4655 23.4534 29.4655 24.625C29.4655 25.7966 28.5121 26.75 27.3405 26.75C26.1689 26.75 25.2155 25.7966 25.2155 24.625C25.2155 23.4534 26.1689 22.5 27.3405 22.5ZM36.5488 21.0833C38.5024 21.0833 40.0905 19.4952 40.0905 17.5417C40.0905 15.5881 38.5024 14 36.5488 14C34.5952 14 33.0072 15.5881 33.0072 17.5417C33.0072 19.4952 34.5952 21.0833 36.5488 21.0833ZM36.5488 15.4167C37.7204 15.4167 38.6738 16.3701 38.6738 17.5417C38.6738 18.7132 37.7204 19.6667 36.5488 19.6667C35.3772 19.6667 34.4238 18.7132 34.4238 17.5417C34.4238 16.3701 35.3772 15.4167 36.5488 15.4167ZM44.2923 42.3333H40.0905V48H38.6738V42.3333H35.8405V40.9167H42.5952L39.8185 25.6606C39.6343 24.6491 38.756 23.9167 37.7275 23.9167H35.3744C34.6902 23.9167 34.0923 24.2609 33.7013 24.7766C33.7013 24.7256 33.7169 24.6774 33.7169 24.625C33.7169 24.0767 33.6262 23.5554 33.4973 23.0483C34.0456 22.704 34.6873 22.5 35.3744 22.5H37.7275C39.4402 22.5 40.9051 23.7226 41.2111 25.407L44.2923 42.3333ZM29.4655 29.5833H25.2155C23.2633 29.5833 21.6738 31.1714 21.6738 33.125V42.3333H24.5072V48H25.9238V42.3333H28.7572V48H30.1738V42.3333H33.0072V33.125C33.0072 31.1714 31.4191 29.5833 29.4655 29.5833ZM31.5905 40.9167H23.0905V33.125C23.0905 31.9534 24.0439 31 25.2155 31H29.4655C30.6371 31 31.5905 31.9534 31.5905 33.125V40.9167Z" fill="#E90973"/>
</svg>
